<svg xmlns="http://www.w3.org/2000/svg" id="Layer_1" viewBox="0 0 928 720">
  <style>
    .st2{fill:#fcfc7f}.st8{fill:#fdfd00}.st9{fill:#fdfdfd}
  </style>
  <path fill="#050502" d="M782.8 358.3c36.4 11.3 72.9 22.7 109.3 34 1.7.5 3.5.9 5.1 1.6 4.1 1.8 6.7 4.8 6.3 9.5-.4 4.7-3.3 7.6-7.9 8.1-6.1.6-12.3.5-18.4.6-7.2.2-14.4.3-21.6.4-1-.1-2-.4-3-.4-44.4 0-88.9 0-133.3.1-1.3 0-3.1-.8-4.3 1.7 8.7 7.3 17.5 14.7 26.2 22 20.3 17.8 40.5 35.6 60.8 53.5 7.1 6.2 7.4 9.6 2.2 17-4.5 2.2-9 1.3-13.6.3l-117.3-27c-14.9-3.4-29.8-6.8-45.7-10.4 2.9 6.9 5.2 12.6 7.6 18.3 18.2 43.6 36.4 87.3 54.6 130.9 4 9.6 3.1 13.1-4.4 17.3-5.2 1.2-8.7-2-12.4-4.8-26.2-19.9-52.3-39.7-78.5-59.6-2-1.5-4.2-2.9-6.3-4.3-9-7-17.9-14-27.7-21.7-3.9 24-7.5 46.5-11.3 68.9-1 5.9-.8 12.5-7 16.3-4.8 1.3-8.8-.5-12.6-3.4-7.6-5.9-15.4-11.5-23.1-17.2-8.5-6.7-16.9-13.4-25.4-20.1-2.5-2-3.7-1.7-4.7 1.6-8.7 27.2-17.5 54.3-26.3 81.4-7.2 9.2-13.7 8.8-19.4-1.3-10.3-18-20.4-36-30.6-54.1-5.5-10.1-11.2-20.1-16.6-30.3-1.8-3.4-3.2-3.8-6.2-1.3-17.3 14.4-34.8 28.7-52.2 43-8.1 6.3-16.1 12.6-24.1 19.1-3.4 2.7-6.9 4.6-11.3 2.8-4.7-1.9-6-5.9-6.3-10.5-.3-4.1-.8-8.2-1.1-12.2-.8-15.7-1.6-31.5-2.5-49.3-12.1 10.2-22.8 19.1-33.4 28.1-14.2 11.5-28.4 22.8-42.5 34.4-4.4 3.6-8.9 6.9-14.5 3.5-5.7-3.5-4.5-9.2-3.1-14.6 2.7-10.6 6.7-20.8 8-31.8l-.3-.1c1.6.2 1.2-.9 1.2-1.8 5.4-18.9 10.8-37.9 16.2-56.8-.6-.3-1.1-.6-1.7-.9-15.1 10.9-30.1 21.8-45.2 32.7-.9.2-1.7.5-1.8 1.6l.1-.1c-1 0-1.9.2-1.8 1.5l-.2-.2c-24 16.8-48 33.6-72 50.5-4.4 3.1-8.8 6.2-13.2 9.4-4.5 3.2-9.2 3.6-13.2-.5-3.9-3.9-3-8.5-.3-12.6 4.3-6.7 9-13.2 13.5-19.8 12.7-18.7 25.4-37.5 38-56.2 9.2-13.1 18.4-26.2 28.9-41.2-11.5 3.1-20.8 5.6-30.1 8.1l-79.2 19.8c-1 .2-2 .7-3 .8-5.9.7-12.5 2-15.5-4.9-2.8-6.4 1.6-10.6 6.2-14.3 21.9-17.5 43.8-35.1 65.6-52.6 2-1.6 3.8-3.3 5.8-5 10.8-8.3 21.6-16.5 32.4-24.7H82.4c-19.3.4-38.6.7-58 1.2-5.7.1-11.1-.1-13.4-6.4-2.3-6 1.8-9.6 5.7-13.1C37.4 394.2 58 375.5 79 357.2c5-4.3 5.4-6.4-.1-10.6-23.5-17.6-46.5-35.9-69.6-53.9-4-3.1-7.9-6.1-6.9-11.8 1-5.7 5.8-7.4 10.5-9 27-9.2 53.9-18.5 80.9-27.7 1.2-.4 2.6-.4 3.4-2.5-17.7-14.1-35.6-28.3-53.4-42.5-9.7-7.7-19.3-15.4-29.1-23.1-4.5-3.5-8.5-7.4-5.7-13.6 2.8-6.2 8.6-5.8 14-4.9 31.5 5.3 62.9 10.7 94.4 16 3 .5 6 .7 9.8 1.2-7.6-31.9-15.1-62.8-22.5-93.8-.5-2.3-1.2-4.5-1.5-6.8-1-7.7 5.2-12.8 12.6-10.4 2.2.7 4.2 1.9 6.3 3 28.7 15 57.4 30.1 86.1 45.1 4.5 2.4 9.2 4.4 15 7.2.9-15.8 1.9-30.8 2.6-45.8.5-11.3.6-22.7.8-34 .1-5.4 1-10.5 6.8-12.6 5.7-2 9.2 1.7 12.5 5.4C265 53.4 284 74.8 303 96.1c1.3 1.5 2.7 3 5.1 5.7 2.7-13.2 5.2-25.1 7.7-37 2.9-14.1 5.8-28.2 8.6-42.3.9-4.8 2.3-9.1 7.6-10.5 5.3-1.4 8.7 1.7 12 5.2 22.1 23.1 44.3 46.1 66.4 69.2 1.1 1.1 1.9 2.4 2.8 3.5 3.4-1.3 3.6-4.1 4.7-6.2 11.3-22.2 22.5-44.5 33.8-66.7 1.2-2.3 2.4-4.6 3.9-6.7 6-8.3 13.3-8.3 19 .7 6 9.6 11.1 19.7 16.6 29.6 1.9 3.4 3.8 6.7 5.8 10 6.4 13 12.7 26 19.6 40 2.3-3.2 3.7-5.3 5.1-7.3C541.9 59 562 34.6 582.1 10.2c3.3-4 6.5-8.4 12.6-7 6.1 1.4 7.2 6.7 8.4 11.7 3.9 15.4 7.7 30.9 11.5 46.3 2 8.7 3.9 17.5 6 26.2 4.3 18.4 4.3 18.4 19.9 6.7 25.4-16.5 50.9-32.9 76.3-49.4 1.7-1.1 3.5-2.2 5.2-3.4 4.3-3 8.9-4.7 13.5-1.1s3.8 8.7 2.1 13.4c-6.7 18.6-13.6 37.1-20.4 55.6-.3.9-.4 2-.6 3-5.7 12.9-10.2 26.3-15.1 40.7 14.1-2.3 27-4.4 39.8-6.6 19.3-2.7 38.5-5.2 57.8-8 5-.7 9.4-.5 12.2 4.1 3 4.9.6 9.3-2.6 13.3-8.6 10.8-17.1 21.7-25.6 32.5-12 14.6-23.9 29.2-36.8 45 15 3 28.6 5.7 42.3 8.4 27.1 5.9 54.2 11.8 81.3 17.5 5.7 1.2 11 3 11.5 9.3.6 5.9-4 8.9-9 11-7.7 3.4-15.3 7-22.9 10.6-2.2.8-4.4 1.4-6.5 2.3-34.7 15.3-69.3 30.6-104 45.9-2.6 1.2-5.7 1.7-8 4.5 17.5 5.4 34.6 10.5 51.8 15.6zm-726-175.6c-.9-.1-2.5-.4-2.7-.1-.6 1.3.8 1.2 1.5 1.5 21.5 17.3 42.9 34.5 64.4 51.7 3.7 3 7.3 6 6.5 11.3-.9 5.8-5.5 7.5-10.3 9.1-22.9 7.8-45.7 15.6-68.6 23.4-5.2 1.8-10.4 3.7-16.7 6 9.9 7.7 18.9 14.5 27.7 21.6 14.1 11.3 28.2 22.5 41.8 34.3 9 7.8 8.7 13.4.2 21.1-7 6.4-14.2 12.8-21.3 19.1-11 9.9-22.1 19.7-34.7 31H54c31.2-.7 62.4-1.3 93.5-2.1 5.6-.1 11.3-.3 13.5 6.1 2.1 6.3-2 10.1-6.5 13.6l-3 2.4c-30.2 24-60.3 48-91 72.4 6.6.1 12.1-2.2 17.7-3.6 27.1-7 54.2-14.3 81.3-21.3 7.1-1.8 13.1 1.6 13.4 7.5.2 4-2.1 7.3-4.3 10.5-18.4 26.7-36.7 53.5-55 80.3-1.5 2.2-2.8 4.5-4.3 6.8 3-.4 5.1-1.6 7.1-3 33.4-23.7 66.8-47.4 100.1-71.1 2.1-1.5 4.1-3.1 6.5-4.2 7-3.2 13.9 1.5 13.4 9.2-.2 2.5-1 5-1.6 7.5-7.2 26.3-14.4 52.6-21.6 78.8-.6 2.1-2 4.1-.7 6.5 2.8-.5 4.3-2.8 6.3-4.3 20.1-16.5 40.3-33 60.3-49.6 3.6-3 7.4-4.8 12-2.8 4.7 2 5.7 6.2 6 10.8.6 9.8 1.1 19.6 1.7 29.3.7 10.1 1.4 20.1 2.2 31.4 25-20.3 48.8-39.6 72.6-58.9 9.7-7.8 14.6-6.9 20.7 3.9 13.1 23.3 26.1 46.7 39.3 70 1.3 2.3 1.7 5.5 5.3 6.5.8-2.2 1.5-4.3 2.2-6.5 7.2-21.7 14.3-43.5 21.5-65.2 4-12.1 9.7-13.8 19.9-6 6.6 5 13.1 10 19.6 15 9.5 7.3 19.1 14.6 29.5 22.6 4-24.8 7.8-48.3 11.7-71.8 2.4-14.9 8.8-17.5 20.7-8.4 29.4 22.2 58.7 44.5 88 66.8 2 1.6 4.1 3 6.6 4.8.7-4-1-6.1-2-8.4-17.2-41.5-34.5-83.1-51.9-124.5-1.9-4.4-3.4-8.9-.1-13.1 3.6-4.6 8.4-3.9 13.4-2.7 14.8 3.5 29.6 6.8 44.4 10.2 32.2 7.4 64.4 14.8 96.7 22.2 1-4.1-2.3-5.2-4.3-6.9-18.6-16.3-37.3-32.5-56-48.8-5.4-4.7-10.9-9.4-16.3-14.2-3.4-3-4.7-6.9-3-11.1 1.5-4 5-5.7 9.2-5.9 2.3-.1 4.6-.1 7-.1h120.6c2.7 0 5.6.8 8.2-.9-1.2-2.5-3.8-2.4-5.8-3.1-21.9-6.8-43.7-13.5-65.6-20.2-16.7-5.1-33.4-10.4-50.1-15.4-4.8-1.4-8.9-3.8-9.4-9-.6-5.6 3.3-8.8 8.1-10.9 1.4-.6 2.8-1.2 4.3-1.8 42.1-18.5 84.2-37.1 126.3-55.7 2.5-1.1 5.5-1.5 7.4-4.3-2.9-.7-5.6-1.3-8.3-1.9-32.7-6.9-65.5-13.7-98.2-20.7-14.4-3.1-16.6-9.5-7.5-20.8 16.8-20.9 33.6-41.8 50.3-62.7 1.3-1.6 3.7-2.8 2.9-5.9-2.6.4-5.2.7-7.7 1.1-26.2 3.9-52.4 7.9-78.7 11.5-13.2 1.8-17.4-3.7-12.9-16.2 9.3-25.6 18.8-51.1 28.1-76.8.9-2.4 2.8-4.7 1.6-8.2-27.1 17.7-53.8 35.2-80.5 52.6-11.9 7.8-17.5 5.6-20.8-8-6.3-26-12.5-52-18.8-78-.4-1.6-.3-3.5-2.6-4.5-20.9 25.5-41.7 51.1-62.5 76.6-9 10.9-15.7 9.6-21.1-3.3C492.2 81 478.6 56.5 464.8 31c-12.3 24.8-24.2 48.8-36.1 72.7-7.4 14.9-12.4 15.8-23.7 4-19.6-20.5-39.2-41-58.9-61.4-1.8-1.9-3.1-4.8-6.7-5.1-5.3 25.8-10.7 51.4-15.8 77.1-1.1 5.3-2 10.4-7.8 12.1-6 1.8-9.5-2.5-12.9-6.4-17.3-19.4-34.6-38.9-52-58.3-1.8-2-3.8-3.7-6.2-6.1-1.1 23-1.2 45.2-4.3 67.1-2 14.4-7.7 17.2-20.7 11.2-25.9-12-51-25.7-76.3-38.9-5.3-2.8-10.7-5.6-16.9-8.8.4 2.6.5 4.2.8 5.6 6.4 26.8 12.8 53.5 19.2 80.3 3.5 14.6-.4 19.1-15.2 18-1.8-.1-3.6-.4-5.4-.7-22.9-3.4-46-7-69.1-10.7z"/>
  <path fill="#fbfb7f" d="M685.5 636c7.5-4.2 8.4-7.7 4.4-17.3-18.2-43.7-36.4-87.3-54.6-130.9-2.4-5.7-4.7-11.4-7.6-18.3 15.9 3.6 30.8 6.9 45.7 10.4l117.3 27c4.6 1.1 9.1 1.9 13.6-.3 9.3 7.9 18.5 15.8 27.8 23.8-.3.4-.6.8-.8 1.2-60.5-13.8-121-27.7-183.7-42C671 546 693.9 601 716.7 655.9c-12.3-4.5-20.5-14.2-31.2-19.9z"/>
  <path d="M782.8 358.3c-17.1-5.1-34.3-10.2-51.8-15.4 2.3-2.9 5.4-3.4 8-4.5 34.6-15.3 69.3-30.6 104-45.9 2.1-.9 4.3-1.5 6.5-2.3 18.3 3.9 36.6 7.8 55.5 11.8-1.8 3.8-5.3 4.1-8.1 5.4-36.7 16.2-73.4 32.3-110.2 48.5-1.4.6-2.6 1.6-3.9 2.4z" class="st2"/>
  <path fill="#fefe7f" d="M741.3 436c-8.8-7.4-17.6-14.7-26.2-22 1.1-2.5 2.9-1.7 4.3-1.7 44.4-.1 88.9-.1 133.3-.1 1 0 2 .3 3 .4 21 6.7 42 13.4 63 20 2.1.7 4.3 1.3 6.4 3.4H741.3z"/>
  <path d="M450.2 673.1c8.8-27.1 17.6-54.2 26.3-81.4 1-3.3 2.2-3.6 4.7-1.6 8.4 6.7 16.9 13.4 25.4 20.1-10.8 36.4-21.6 72.7-32.9 110.8-9.7-16.4-14.3-33.3-23.5-47.9zM164.4 571.8c15.1-10.9 30.1-21.8 45.2-32.7.6.3 1.1.6 1.7.9-5.4 18.9-10.8 37.9-16.2 56.8l-1.2 1.8.3.1c-12.3 5-21.6 14.4-32.5 21.6-18 11.8-34.6 25.6-53 36.8l-.2-.2c0-3.1 2.1-5.1 3.6-7.4 15.1-22.2 30.3-44.4 45.5-66.7 1.6-2.4 4.5-4.5 3.1-8.1l.2.2c1.2.2 1.7-.4 1.8-1.5l-.1.1c.6-.6 1.2-1.2 1.8-1.7zM325.1 629.2c17.4-14.3 34.9-28.6 52.2-43 3-2.5 4.4-2.1 6.2 1.3 5.4 10.2 11 20.2 16.6 30.3-23.4 19-46.9 38-71.1 57.6-2.8-15.9-1.9-31.2-3.9-46.2zM542.3 630.9c6.1-3.8 6-10.3 7-16.3 3.8-22.5 7.4-44.9 11.3-68.9 9.8 7.6 18.7 14.7 27.7 21.7-4.7 29-9.4 58-14.3 88.4-11.3-8.8-21.5-16.9-31.7-24.9zM788.5 241.7c-13.7-2.7-27.3-5.5-42.3-8.4 12.9-15.8 24.9-30.4 36.8-45 18-2.5 36-5 54.9-7.6-5.3 9-12 15.9-18 23.2-10.3 12.6-19.5 26.4-31.4 37.8zM246.3 607.1c10.6-8.9 21.3-17.9 33.4-28.1.9 17.8 1.7 33.6 2.5 49.3-14.2 9.2-26.3 21.2-39.6 31.5-3.4 2.6-6.8 5.3-11.8 7.2 5.2-19.9 10.3-39.9 15.5-59.9zM741.3 146.4c-12.9 2.1-25.8 4.2-39.8 6.6 4.9-14.4 9.4-27.7 15.1-40.7 15.5-9.6 30.2-20.5 46.2-29.3l.4.4c-2.9 15.5-10.4 29.4-15 44.3-2 6.3-4.6 12.5-6.9 18.7z" class="st2"/>
  <path fill="#fbfb80" d="M112.2 512.3c9.3-2.5 18.6-5 30.1-8.1-10.5 15-19.7 28.1-28.9 41.2-14.4 3.4-28.9 6.7-43.3 10.2-2.8.7-5.5 1.3-9.1.5 4.6-6.4 11-10.2 16.5-14.9 10-8.4 20.5-16.2 30.7-24.3 1.6-1.3 2.7-3.1 4-4.6z"/>
  <path fill="#f9f97e" d="M82.1 431.3h42.3c-10.7 8.2-21.5 16.4-32.4 24.7H55.3c9.8-9 18.3-16.8 26.8-24.7z"/>
  <path fill="#fafa7f" d="M640.5 94.1c-15.6 11.8-15.6 11.8-19.9-6.7-2-8.7-4-17.4-6-26.2 4.1-4.8 8.2-9.6 13.3-15.6 4.4 17 8.5 32.7 12.6 48.5z"/>
  <path fill="#f8f87f" d="M521.8 83.4c-1.4 2-2.8 4-5.1 7.3-6.9-14-13.2-27-19.6-40 2.6-3.6 4.5-3 6.5.7 5.9 10.7 12.1 21.3 18.2 32z"/>
  <path d="M108.7 657l-.9.6c.2-.3.5-.5.7-.8 0 .1.2.2.2.2zM762.8 83c.3-.2.6-.4 1-.6-.2.3-.4.7-.6 1l-.4-.4z" class="st2"/>
  <path d="M56.8 182.7c23.1 3.7 46.2 7.4 69.4 11 1.8.3 3.6.6 5.4.7 14.9 1.1 18.7-3.4 15.2-18-6.4-26.8-12.8-53.5-19.2-80.3-.3-1.5-.4-3-.8-5.6 6.2 3.2 11.6 6 16.9 8.8 25.3 13.2 50.3 26.9 76.3 38.9 13 6 18.7 3.2 20.7-11.2 3.1-21.9 3.3-44.1 4.3-67.1 2.4 2.4 4.4 4.1 6.2 6.1 17.4 19.4 34.7 38.8 52 58.3 3.5 3.9 7 8.2 12.9 6.4 5.8-1.7 6.8-6.9 7.8-12.1 5.1-25.7 10.5-51.3 15.8-77.1 3.6.3 4.9 3.2 6.7 5.1C366 67 385.6 87.5 405.2 108c11.3 11.8 16.3 11 23.7-4 11.9-24 23.8-47.9 36.1-72.7 13.8 25.5 27.4 50 38.2 75.8 5.4 12.9 12.2 14.2 21.1 3.3 20.9-25.5 41.7-51 62.5-76.6 2.3 1 2.2 3 2.6 4.5 6.3 26 12.6 52 18.8 78 3.3 13.6 8.9 15.8 20.8 8 26.7-17.4 53.4-34.9 80.5-52.6 1.2 3.5-.8 5.8-1.6 8.2-9.3 25.6-18.7 51.2-28.1 76.8-4.5 12.5-.3 18 12.9 16.2 26.3-3.6 52.5-7.6 78.7-11.5 2.5-.4 5.1-.7 7.7-1.1.9 3.1-1.6 4.3-2.9 5.9-16.7 20.9-33.5 41.8-50.3 62.7-9.1 11.3-6.8 17.7 7.5 20.8 32.7 7 65.4 13.8 98.2 20.7 2.7.6 5.4 1.2 8.3 1.9-1.9 2.8-4.9 3.2-7.4 4.3-42.1 18.6-84.2 37.1-126.3 55.7-1.4.6-2.8 1.2-4.3 1.8-4.8 2.1-8.7 5.3-8.1 10.9.5 5.1 4.6 7.5 9.4 9 16.7 5 33.4 10.2 50.1 15.4 21.9 6.7 43.7 13.4 65.6 20.2 2 .6 4.6.5 5.8 3.1-2.7 1.7-5.5.9-8.2.9-40.2.1-80.4 0-120.6 0-2.3 0-4.6 0-7 .1-4.2.2-7.7 1.8-9.2 5.9-1.6 4.2-.4 8.1 3 11.1 5.4 4.8 10.9 9.5 16.3 14.2 18.7 16.2 37.4 32.5 56 48.8 1.9 1.7 5.2 2.8 4.3 6.9-32.3-7.4-64.5-14.8-96.7-22.2-14.8-3.4-29.6-6.7-44.4-10.2-5-1.2-9.9-1.9-13.4 2.7-3.3 4.2-1.7 8.6.1 13.1 17.4 41.5 34.6 83 51.9 124.5 1 2.3 2.7 4.4 2 8.4-2.5-1.8-4.6-3.3-6.6-4.8-29.3-22.3-58.7-44.5-88-66.8-11.9-9-18.2-6.4-20.7 8.4-3.9 23.5-7.7 47-11.7 71.8-10.5-8-20-15.3-29.5-22.6-6.5-5-13.1-10-19.6-15-10.2-7.8-15.9-6.1-19.9 6-7.2 21.7-14.3 43.5-21.5 65.2-.7 2.1-1.5 4.3-2.2 6.5-3.6-1-4-4.2-5.3-6.5-13.2-23.3-26.2-46.7-39.3-70-6.1-10.8-11-11.7-20.7-3.9-23.8 19.3-47.6 38.6-72.6 58.9-.8-11.3-1.6-21.4-2.2-31.4-.6-9.8-1.2-19.5-1.7-29.3-.3-4.5-1.3-8.8-6-10.8-4.6-2-8.4-.2-12 2.8-20.1 16.6-40.2 33.1-60.3 49.6-1.9 1.6-3.5 3.8-6.3 4.3-1.3-2.4.1-4.4.7-6.5 7.2-26.3 14.4-52.6 21.6-78.8.7-2.5 1.5-5 1.6-7.5.5-7.7-6.4-12.4-13.4-9.2-2.3 1.1-4.4 2.7-6.5 4.2-33.4 23.7-66.8 47.4-100.1 71.1-2 1.4-4.1 2.6-7.1 3 1.4-2.3 2.7-4.6 4.3-6.8 18.3-26.8 36.7-53.5 55-80.3 2.2-3.2 4.5-6.5 4.3-10.5-.3-5.9-6.3-9.3-13.4-7.5-27.1 7-54.2 14.3-81.3 21.3-5.6 1.4-11.1 3.8-17.7 3.6 30.7-24.4 60.8-48.4 91-72.4 1-.8 2-1.7 3-2.4 4.4-3.5 8.6-7.3 6.5-13.6-2.2-6.5-7.9-6.3-13.5-6.1-31.2.7-62.4 1.4-93.5 2.1-2.4.1-4.9 0-9.4 0 12.6-11.3 23.7-21.2 34.7-31 7.1-6.4 14.2-12.7 21.3-19.1 8.5-7.8 8.8-13.3-.2-21.1-13.6-11.8-27.8-23-41.8-34.3-8.8-7.1-17.8-13.9-27.7-21.6 6.3-2.2 11.4-4.2 16.7-6 22.9-7.8 45.7-15.6 68.6-23.4 4.7-1.6 9.4-3.4 10.3-9.1.8-5.3-2.8-8.3-6.5-11.3-21.5-17.2-43-34.5-64.4-51.7.2-.8.6-1.2 1-1.7z" class="st8"/>
  <path d="M55.6 184.1c-.7-.4-2.1-.3-1.5-1.5.1-.3 1.7.1 2.7.1-.4.5-.8.9-1.2 1.4z" class="st8"/>
  <path d="M162.7 573.3c-.1 1.1-.6 1.7-1.8 1.5-.1-1.3.8-1.5 1.8-1.5z" class="st9"/>
  <path d="M164.4 571.8c-.6.5-1.2 1.1-1.8 1.6.1-1.1.9-1.5 1.8-1.6zM193.9 598.5l1.2-1.8c0 .9.4 2-1.2 1.8z" class="st9"/>
</svg>
